# xmcd CD database file
#
# Track frame offsets:
#	150
#	1632
#	14835
#	29241
#	43667
#	58090
#	72560
#	86992
#	101451
#	115899
#	129493
#	145046
#	157013
#	171462
#
# Disc length: 2476 seconds
#
# Revision: 0
# Processed by: cddbd v1.5PL3 Copyright (c) Steve Scherf et al.
# Submitted via: CDex 1.51
#
DISCID=cb09aa0e
DTITLE=Selen ADVANCE - 犠母姉妹／真・兄嫁 MINI FANDISC Disc2（真・兄嫁）
DYEAR=2003
DGENRE=Game
TTITLE0=Data
TTITLE1=amethyst （Short ver.）
TTITLE2=BGM01
TTITLE3=BGM02
TTITLE4=BGM03
TTITLE5=BGM04
TTITLE6=BGM05
TTITLE7=BGM06
TTITLE8=BGM07
TTITLE9=BGM08
TTITLE10=BGM09
TTITLE11=BGM10
TTITLE12=BGM11
TTITLE13=BGM12
EXTD=YEAR: 2003
EXTT0=
EXTT1=
EXTT2=
EXTT3=
EXTT4=
EXTT5=
EXTT6=
EXTT7=
EXTT8=
EXTT9=
EXTT10=
EXTT11=
EXTT12=
EXTT13=
PLAYORDER=
